<svg width="52" height="52" viewBox="0 0 52 52" fill="none" xmlns="http://www.w3.org/2000/svg">
<rect width="52" height="52" rx="8" fill="#F2F5F9"/>
<path d="M26 35.6501C25.69 35.6501 25.39 35.6101 25.14 35.5201C21.32 34.2101 15.25 29.5601 15.25 22.6901C15.25 19.1901 18.08 16.3501 21.56 16.3501C23.25 16.3501 24.83 17.0101 26 18.1901C27.17 17.0101 28.75 16.3501 30.44 16.3501C33.92 16.3501 36.75 19.2001 36.75 22.6901C36.75 29.5701 30.68 34.2101 26.86 35.5201C26.61 35.6101 26.31 35.6501 26 35.6501ZM21.56 17.8501C18.91 17.8501 16.75 20.0201 16.75 22.6901C16.75 29.5201 23.32 33.3201 25.63 34.1101C25.81 34.1701 26.2 34.1701 26.38 34.1101C28.68 33.3201 35.26 29.5301 35.26 22.6901C35.26 20.0201 33.1 17.8501 30.45 17.8501C28.93 17.8501 27.52 18.5601 26.61 19.7901C26.33 20.1701 25.69 20.1701 25.41 19.7901C24.48 18.5501 23.08 17.8501 21.56 17.8501Z" fill="#263141"/>
</svg>
