<svg width="22" height="20" viewBox="0 0 22 20" fill="none" xmlns="http://www.w3.org/2000/svg">
<path d="M11.8652 0.996283C11.4799 0.332132 10.5208 0.33213 10.1354 0.996283L7.42132 5.67359C7.23094 6.00168 6.90189 6.22557 6.52683 6.28222L1.44052 7.05044C0.586235 7.17947 0.286575 8.25808 0.951881 8.80928L4.74097 11.9485C5.09171 12.2391 5.25663 12.6975 5.17143 13.1449L4.18026 18.35C4.02358 19.1729 4.88737 19.8122 5.62852 19.4219L10.4179 16.9001C10.7825 16.7082 11.2182 16.7082 11.5827 16.9001L16.3721 19.4219C17.1132 19.8122 17.977 19.1729 17.8203 18.35L16.8292 13.1449C16.744 12.6975 16.9089 12.2391 17.2596 11.9485L21.0487 8.80928C21.714 8.25808 21.4144 7.17947 20.5601 7.05044L15.4738 6.28222C15.0987 6.22557 14.7697 6.00168 14.5793 5.67359L11.8652 0.996283Z" fill="#FF4D4D"/>
</svg>
